<?xml version="1.0" encoding="utf-8"?>
<!-- Generator: Adobe Illustrator 16.0.0, SVG Export Plug-In . SVG Version: 6.00 Build 0)  -->
<!DOCTYPE svg PUBLIC "-//W3C//DTD SVG 1.1//EN" "http://www.w3.org/Graphics/SVG/1.1/DTD/svg11.dtd">
<svg version="1.1" id="Capa_1" xmlns="http://www.w3.org/2000/svg" xmlns:xlink="http://www.w3.org/1999/xlink" x="0px" y="0px"
	 width="190px" height="170px" viewBox="0 0 190 170" enable-background="new 0 0 190 170" xml:space="preserve">
<g>
	<defs>
		<rect id="SVGID_1_" x="-14" y="-23" width="216" height="216"/>
	</defs>
	<clipPath id="SVGID_2_">
		<use xlink:href="#SVGID_1_"  overflow="visible"/>
	</clipPath>
	<path clip-path="url(#SVGID_2_)" fill="#111211" d="M186.722,163.28l-45.29-78.7L96.15,5.87c-0.219-0.38-0.61-0.57-1-0.57
		s-0.77,0.19-1,0.57L48.642,84.439L3.121,163.01c-0.439,0.771,0.111,1.73,1,1.73L185.722,165h0.01
		C186.61,165,187.16,164.05,186.722,163.28 M94.921,162.13L8.81,162.003c-0.858-0.001-1.392-0.93-0.962-1.672L51.011,85.81
		l43.174-74.512c0.429-0.741,1.501-0.739,1.928,0.003l42.949,74.639l42.948,74.649c0.427,0.742-0.11,1.67-0.967,1.668L94.921,162.13
		z"/>
</g>
<g>
	<path fill="#111211" d="M51.671,132.75l0.032,21.911l-2.336,0.004l-0.002-1.609c-1.678,1.008-3.597,1.559-5.598,1.562
		c-5.655,0.008-9.611-4.483-9.621-10.921s3.934-10.94,9.59-10.948c2.001-0.003,3.923,0.542,5.603,1.548l-0.002-1.542L51.671,132.75z
		 M49.36,150.198l-0.019-13.043c-1.558-1.343-3.53-2.074-5.604-2.071c-5.022,0.007-7.264,4.329-7.258,8.609
		c0.006,4.28,2.261,8.595,7.283,8.588C45.836,152.278,47.805,151.542,49.36,150.198z"/>
</g>
<g>
	<path fill="#111211" d="M66.336,152.305l0.003,2.336l-7.094,0.01l-0.044-30.555l2.334-0.003l0.041,28.219L66.336,152.305z"/>
</g>
<g>
	<path fill="#111211" d="M93.116,143.669c0.001,0.681-0.019,1.685-0.019,1.685l-0.021,1.145l-16.498,0.023
		c0.807,3.165,3.039,5.764,6.938,5.758c2.541-0.004,4.937-1.122,6.574-3.069l1.788,1.504c-2.081,2.476-5.127,3.896-8.356,3.901
		c-5.658,0.008-9.616-4.481-9.625-10.919c-0.009-6.437,3.936-10.939,9.593-10.947C89.149,132.741,93.107,137.23,93.116,143.669z
		 M90.782,143.672c-0.006-4.28-2.263-8.594-7.287-8.587c-5.024,0.007-7.268,4.328-7.262,8.608c0,0.164,0.005,0.329,0.012,0.493
		l14.533-0.021C90.78,143.995,90.781,143.825,90.782,143.672z"/>
</g>
<g>
	<path fill="#111211" d="M108.918,132.67l0.004,2.335l-1.133,0.002c-2.633,0.004-4.771,2.493-4.778,5.552l0.021,14.029l-2.336,0.002
		l-0.002-1.138h-0.001l-0.019-12.865c0-0.009,0.001-0.017,0.001-0.024l-0.012-7.827l2.336-0.004l0.003,2.037
		c1.266-1.288,2.934-2.094,4.781-2.097L108.918,132.67z"/>
	<path fill="#111211" d="M129.165,148.157c0.006,3.764-2.591,6.396-6.313,6.402c-3.721,0.005-6.325-2.62-6.331-6.384
		c0-0.369,0.011-0.916,0.011-0.916l2.334,0.05c0,0.003-0.011,0.516-0.011,0.863c0.003,1.872,1.05,4.055,3.992,4.051
		c2.942-0.005,3.983-2.19,3.98-4.063c-0.002-1.61-0.793-3.558-3.017-3.746c-4.854-0.411-6.62-3.825-6.623-6.02
		c-0.005-3.356,2.311-5.703,5.631-5.708s5.644,2.335,5.648,5.691c0,0.322-0.01,0.798-0.01,0.798l-2.334-0.049
		c0-0.003,0.01-0.445,0.01-0.745c-0.002-1.552-0.869-3.363-3.31-3.359c-2.438,0.003-3.301,1.816-3.299,3.369
		c0,0.033,0.058,3.319,4.485,3.696C127.041,142.346,129.16,144.841,129.165,148.157z"/>
</g>
<g>
	<path fill="#111211" d="M155.958,143.577c0.001,0.681-0.02,1.686-0.02,1.686l-0.021,1.145l-16.497,0.023
		c0.807,3.165,3.037,5.764,6.938,5.758c2.541-0.004,4.938-1.123,6.574-3.069l1.788,1.503c-2.08,2.476-5.127,3.897-8.356,3.902
		c-5.658,0.008-9.616-4.481-9.625-10.919c-0.01-6.437,3.935-10.939,9.593-10.947C151.989,132.649,155.948,137.139,155.958,143.577z
		 M153.623,143.581c-0.007-4.28-2.262-8.595-7.287-8.587c-5.024,0.007-7.268,4.328-7.261,8.608c0,0.164,0.004,0.329,0.01,0.493
		l14.534-0.021C153.62,143.904,153.622,143.734,153.623,143.581z"/>
</g>
<g>
	<defs>
		<rect id="SVGID_3_" x="-14" y="-23" width="216" height="216"/>
	</defs>
	<clipPath id="SVGID_4_">
		<use xlink:href="#SVGID_3_"  overflow="visible"/>
	</clipPath>
	<path clip-path="url(#SVGID_4_)" d="M152.684,125.993c-0.284,1.223-1.169,3.147-2.01,4.383l-1.267-1
		c0.673-0.914,1.704-2.679,2.257-4.185L152.684,125.993z"/>
</g>
</svg>
