<?xml version="1.0" encoding="utf-8"?>
<!-- Generator: Adobe Illustrator 16.0.0, SVG Export Plug-In . SVG Version: 6.00 Build 0)  -->
<!DOCTYPE svg PUBLIC "-//W3C//DTD SVG 1.1//EN" "http://www.w3.org/Graphics/SVG/1.1/DTD/svg11.dtd">
<svg version="1.1" id="Capa_1" xmlns="http://www.w3.org/2000/svg" xmlns:xlink="http://www.w3.org/1999/xlink" x="0px" y="0px"
	 width="216px" height="216px" viewBox="0 0 216 216" enable-background="new 0 0 216 216" xml:space="preserve">
<g>
	<path d="M151.025,43.885v36.684h-4.585V50.85l-13.757,15.718L118.928,50.85v29.719h-4.585V43.885h4.585l13.756,15.723
		l13.757-15.723H151.025z"/>
</g>
<g>
	<path d="M45.522,155.453c0.638-5.815,0.958-13.58,0.958-23.296c0-4.281,0.192-10.737,0.575-19.365
		c0.446-7.989,0.671-14.412,0.671-19.27c0-0.575,0.271-1.021,0.815-1.342c0.542-0.319,1.166-0.479,1.87-0.479
		c2.236,0,4.697,0.256,7.382,0.767c2.684,0.512,4.026,1.183,4.026,2.013c0,1.087-1.119,1.63-3.355,1.63
		c-1.406-0.638-3.196-0.959-5.369-0.959l-1.15,0.096c-0.191,0.064-0.335,0.161-0.431,0.288c-0.096,0.129-0.177,0.321-0.24,0.576
		c-0.129,0.512-0.256,0.863-0.383,1.054c0,2.876-0.129,6.265-0.384,10.162c-0.32,3.771-0.479,7.127-0.479,10.066v3.355
		c0,0.256,0.511,0.352,1.534,0.287c3.259,0,4.889,0.513,4.889,1.534c0,0.512-0.24,0.943-0.719,1.294
		c-0.479,0.353-1.007,0.527-1.582,0.527c-0.383,0-0.927-0.096-1.63-0.287c-0.64-0.192-1.183-0.288-1.629-0.288
		c-1.15,0-1.726,1.567-1.726,4.697v10.833c0,1.534,0.096,3.804,0.288,6.807c0.191,3.068,0.288,5.369,0.288,6.903
		c0,2.555-0.767,3.834-2.301,3.834L45.522,155.453z"/>
	<path d="M70.255,122.091v-3.355c0-17.832,2.301-26.747,6.902-26.747c0.319,0,0.767,0.096,1.342,0.288
		c2.045,0.704,4.058,1.15,6.04,1.342c1.213,0.256,2.428,1.502,3.643,3.739c1.342,2.301,2.349,5.337,3.02,9.107
		c0.671,3.772,1.006,7.638,1.006,11.6l-0.191,0.479c0,2.109,0.031,3.995,0.096,5.656l0.096,5.752c0,3.26-0.129,6.2-0.383,8.819
		c-0.383,3.964-1.023,7.382-1.917,10.259c-0.575,1.726-1.231,3.163-1.965,4.313c-0.735,1.15-1.646,2.109-2.732,2.876
		c-1.023,0.768-2.27,1.15-3.739,1.15C73.994,157.37,70.255,145.611,70.255,122.091z M86.648,149.317
		c1.213-3.578,1.949-7.222,2.205-10.929c0.255-3.835,0.384-6.902,0.384-9.203c0-2.556-0.192-6.328-0.575-11.313
		c-0.321-5.561-0.479-9.331-0.479-11.313l-0.383-0.767l0.191-0.479c0-2.812-0.783-5.24-2.349-7.286
		c-1.567-2.044-3.468-3.068-5.704-3.068c-2.94,0-4.697,1.407-5.273,4.218c-0.128,0.959-0.256,2.334-0.383,4.123
		c0,4.73-0.192,7.957-0.575,9.683c0,0.959-0.096,2.461-0.288,4.506l-0.192,4.506c0,1.406,0.032,2.652,0.096,3.738l0.096,3.835
		c0,3.005,0.255,6.456,0.767,10.354c0.383,2.877,0.83,5.307,1.342,7.286c0.511,1.982,1.246,3.676,2.205,5.081
		c0.959,1.534,2.076,2.301,3.355,2.301C83.581,154.59,85.434,152.833,86.648,149.317z"/>
	<path d="M122.119,156.412c0,0-0.129-0.113-0.385-0.336c-0.256-0.225-0.447-0.815-0.574-1.773c-0.576-4.665-0.928-7.574-1.055-8.725
		l-0.479-3.834c-1.408-0.319-3.006-0.479-4.795-0.479l-3.451-0.192c-1.533-0.191-2.652-0.287-3.355-0.287
		c-0.383,0-0.607,0.16-0.67,0.479c0,0.191-0.033,0.287-0.096,0.287l-0.191,1.918c-0.064,1.15-0.417,3.451-1.055,6.902
		c-0.32,1.726-0.704,3.067-1.15,4.026c-0.512,1.088-0.992,1.63-1.438,1.63c-0.383,0-0.8-0.177-1.246-0.527
		c-0.448-0.351-0.671-0.719-0.671-1.103l0.096-0.288l0.096-0.287c1.15-4.537,2.109-9.043,2.876-13.518l1.15-5.943l1.15-7.286
		l1.055-6.327c0.319-1.726,0.894-4.506,1.726-8.341c0.895-4.346,1.438-7.317,1.629-8.916c0.063-0.192,0.191-1.374,0.383-3.547
		c0.256-2.428,0.48-4.218,0.672-5.369c0.191-1.661,0.383-2.62,0.576-2.876h0.67c0.191,0.064,0.416,0.096,0.672,0.096
		c0.766,0,1.342-0.191,1.725-0.575c0.447,0,0.848,0.144,1.199,0.432c0.35,0.288,0.527,0.623,0.527,1.006
		c0,3.068,0.223,6.583,0.67,10.546c0.256,2.046,0.447,3.739,0.576,5.08c0.703,8.245,2.492,23.713,5.369,46.4v0.288
		c0,0.638-0.258,1.117-0.768,1.438C122.598,156.412,122.119,156.412,122.119,156.412z M119.146,139.155
		c-0.639-9.203-1.854-22.783-3.643-40.744l-5.178,25.596c-1.471,7.351-2.205,11.984-2.205,13.901c0,0.32,1.215,0.608,3.645,0.862
		c2.428,0.257,4.568,0.384,6.422,0.384H119.146z"/>
	<path d="M170.627,154.398v-6.327c0-9.203-0.192-16.394-0.576-21.57l-0.287-3.547c-0.256-1.598-0.384-3.004-0.384-4.219
		c0-2.172,0.063-4.153,0.192-5.943l0.191-5.944c0-1.98-0.129-3.482-0.384-4.506c-1.279,0.896-5.146,14.349-11.6,40.36l-0.096,1.438
		c-0.192,1.599-0.448,2.876-0.768,3.835c-0.191,0.704-0.464,1.246-0.814,1.63c-0.353,0.383-0.752,0.575-1.198,0.575
		c-1.023,0-1.759-0.255-2.205-0.768c-0.448-0.511-0.671-1.309-0.671-2.396c0-1.726-0.815-6.198-2.445-13.422
		c-1.629-7.222-3.388-14.155-5.272-20.803c-1.886-6.646-3.18-10.321-3.883-11.025c-0.064,2.238-0.32,7.511-0.767,15.818
		c-0.896,14.701-1.342,26.268-1.342,34.704l0.096,3.835c-0.257,0.83-0.928,1.246-2.014,1.246c-0.191,0-0.512-0.177-0.958-0.527
		c-0.448-0.352-0.672-0.623-0.672-0.814c0-5.752,0.511-15.85,1.534-30.295c0.959-13.421,1.438-23.487,1.438-30.198
		c0-0.319-0.064-0.638-0.192-0.958c-0.191-0.383-0.287-0.671-0.287-0.863c0-0.958,0.829-1.438,2.492-1.438
		c1.086,0,1.726,0.479,1.917,1.438c0.255,1.279,0.384,2.238,0.384,2.876l0.096,1.15c0.319,1.663,1.247,4.218,2.78,7.669
		c1.214,2.749,2.141,5.146,2.78,7.19c0.384,1.534,0.734,2.78,1.055,3.739c1.021,3.707,1.692,6.456,2.014,8.244l1.246,2.493
		c0.191,0.959,0.575,2.525,1.15,4.697c0.575,2.43,0.99,4.41,1.246,5.944c0.255,1.533,0.384,3.005,0.384,4.409
		c0.702-1.086,2.699-7.621,5.991-19.604c3.291-11.983,5.225-19.637,5.8-22.96c0.063-0.127,0.111-0.303,0.145-0.527
		c0.031-0.223,0.079-0.527,0.144-0.911c0.127-0.83,0.415-2.076,0.862-3.739c0.512-1.277,1.278-1.917,2.301-1.917
		c0.447,0,0.959,0.191,1.534,0.575c0.575,0.383,0.863,0.767,0.863,1.15c0,26.651,0.415,40.744,1.246,42.277v4.985
		c-0.064,1.471-0.096,3.164-0.096,5.081c0,4.091,0.223,7.159,0.671,9.203c0.063,0.063,0.11,0.159,0.144,0.288
		c0.031,0.127,0.079,0.287,0.144,0.479c0.063,0.254,0.097,0.542,0.097,0.862c0,0.703-0.209,1.405-0.623,2.109
		c-0.417,0.702-0.911,1.055-1.486,1.055C171.265,160.534,170.627,158.487,170.627,154.398z M169.38,101.767h-0.096l-0.191,0.096
		l0.287,0.096V101.767z"/>
</g>
<g>
	<defs>
		<rect id="SVGID_1_" width="216" height="216"/>
	</defs>
	<clipPath id="SVGID_2_">
		<use xlink:href="#SVGID_1_"  overflow="visible"/>
	</clipPath>
	
		<circle clip-path="url(#SVGID_2_)" fill="none" stroke="#010101" stroke-width="2.5" stroke-miterlimit="10" cx="107.869" cy="106.344" r="94.605"/>
	<path clip-path="url(#SVGID_2_)" d="M82.825,57.347l-3.238,3.247l3.238,3.237l3.248-3.237L82.825,57.347z M96.159,47.25
		c-1.119-1.12-3.674-3.395-7.631-4.651c-1.086-0.345-3.106-0.877-5.695-0.877c-4.34,0-8.341,1.466-11.528,3.943
		c0.946,0.217,1.892,0.434,2.838,0.651c-0.072,0.958-0.145,1.916-0.217,2.874c0.827-0.463,1.54-0.854,2.151-1.18
		c0.009-0.005,0.864-0.458,1.656-0.763c1.606-0.616,3.327-0.939,5.1-0.939c3.807,0,7.392,1.484,10.089,4.181
		c2.695,2.695,4.179,6.28,4.179,10.086c0,2.247-0.517,4.409-1.484,6.35l3.536,3.095c0.823-1.423,1.468-2.961,1.901-4.586
		c0.273-1.026,0.633-2.727,0.633-4.859c-0.001-2.562-0.522-4.57-0.864-5.657C99.563,50.924,97.256,48.347,96.159,47.25
		 M82.833,74.845c-2.525,0-4.445-0.667-5.363-1.039c-0.92-0.373-2.851-1.269-4.724-3.142c-2.696-2.694-4.179-6.272-4.179-10.088
		c0-2.238,0.508-4.39,1.483-6.34l-3.535-3.094c-1.61,2.781-2.534,6.001-2.534,9.434c0,5.205,2.11,9.92,5.519,13.335
		c3.416,3.408,8.129,5.52,13.333,5.52c4.333,0,8.325-1.469,11.512-3.934c-1.023-0.259-2.045-0.518-3.068-0.777
		c0.013-0.907,0.027-1.814,0.04-2.721c-0.683,0.526-1.7,1.208-3.042,1.773C87.583,74.063,85.566,74.844,82.833,74.845
		 M82.825,57.347l-3.238,3.247l3.238,3.237l3.248-3.237L82.825,57.347z M82.825,57.347l-3.238,3.247l3.238,3.237l3.248-3.237
		L82.825,57.347z"/>
	<polygon clip-path="url(#SVGID_2_)" points="93.975,72.716 99.65,69.794 105.327,66.874 99.958,63.419 94.592,59.964 94.284,66.34 
			"/>
	<polygon clip-path="url(#SVGID_2_)" points="60.703,53.921 66.183,57.194 71.662,60.467 71.757,54.085 71.852,47.703 
		66.277,50.813 	"/>
	<polygon clip-path="url(#SVGID_2_)" points="86.072,60.594 82.824,63.831 79.586,60.594 82.824,57.347 	"/>
</g>
</svg>
